<?xml version="1.0" encoding="UTF-8" standalone="no"?>
<!DOCTYPE svg PUBLIC "-//W3C//DTD SVG 1.1//EN"
 "http://www.w3.org/Graphics/SVG/1.1/DTD/svg11.dtd">
<!-- Generated by graphviz version 9.0.0 (20230911.1827)
 -->
<!-- Pages: 1 -->
<svg width="1735pt" height="1623pt"
 viewBox="0.00 0.00 1735.10 1623.45" xmlns="http://www.w3.org/2000/svg" xmlns:xlink="http://www.w3.org/1999/xlink">
<g id="graph0" class="graph" transform="scale(1 1) rotate(0) translate(4 1619.45)">
<polygon fill="white" stroke="none" points="-4,4 -4,-1619.45 1731.1,-1619.45 1731.1,4 -4,4"/>
<!-- org.clojure/clojure -->
<g id="node1" class="node">
<title>org.clojure/clojure</title>
<g id="a_node1"><a xlink:href="./org.clojure__clojure.svg" xlink:title="org.clojure/clojure">
<path fill="green" stroke="black" d="M670.54,-759.68C670.54,-761.81 636.72,-763.54 595.09,-763.54 553.46,-763.54 519.64,-761.81 519.64,-759.68 519.64,-759.68 519.64,-724.91 519.64,-724.91 519.64,-722.78 553.46,-721.05 595.09,-721.05 636.72,-721.05 670.54,-722.78 670.54,-724.91 670.54,-724.91 670.54,-759.68 670.54,-759.68"/>
<path fill="none" stroke="black" d="M670.54,-759.68C670.54,-757.55 636.72,-755.81 595.09,-755.81 553.46,-755.81 519.64,-757.55 519.64,-759.68"/>
<text text-anchor="middle" x="595.09" y="-737.25" font-family="Times,serif" font-size="14.00">org.clojure/clojure</text>
</a>
</g>
</g>
<!-- org.clojure/tools.logging -->
<g id="node2" class="node">
<title>org.clojure/tools.logging</title>
<g id="a_node2"><a xlink:href="./org.clojure__tools.logging.svg" xlink:title="org.clojure/tools.logging">
<path fill="green" stroke="black" d="M1423.65,-659.75C1423.65,-661.88 1382.27,-663.61 1331.33,-663.61 1280.38,-663.61 1239,-661.88 1239,-659.75 1239,-659.75 1239,-624.98 1239,-624.98 1239,-622.85 1280.38,-621.12 1331.33,-621.12 1382.27,-621.12 1423.65,-622.85 1423.65,-624.98 1423.65,-624.98 1423.65,-659.75 1423.65,-659.75"/>
<path fill="none" stroke="black" d="M1423.65,-659.75C1423.65,-657.61 1382.27,-655.88 1331.33,-655.88 1280.38,-655.88 1239,-657.61 1239,-659.75"/>
<text text-anchor="middle" x="1331.33" y="-637.31" font-family="Times,serif" font-size="14.00">org.clojure/tools.logging</text>
</a>
</g>
</g>
<!-- danlentz/clj&#45;uuid -->
<g id="node3" class="node">
<title>danlentz/clj&#45;uuid</title>
<g id="a_node3"><a xlink:href="./danlentz__clj-uuid.svg" xlink:title="danlentz/clj&#45;uuid">
<path fill="green" stroke="black" d="M377.9,-1422.56C377.9,-1424.69 346.1,-1426.42 306.95,-1426.42 267.8,-1426.42 236,-1424.69 236,-1422.56 236,-1422.56 236,-1387.79 236,-1387.79 236,-1385.66 267.8,-1383.93 306.95,-1383.93 346.1,-1383.93 377.9,-1385.66 377.9,-1387.79 377.9,-1387.79 377.9,-1422.56 377.9,-1422.56"/>
<path fill="none" stroke="black" d="M377.9,-1422.56C377.9,-1420.43 346.1,-1418.69 306.95,-1418.69 267.8,-1418.69 236,-1420.43 236,-1422.56"/>
<text text-anchor="middle" x="306.95" y="-1400.13" font-family="Times,serif" font-size="14.00">danlentz/clj&#45;uuid</text>
</a>
</g>
</g>
<!-- com.clojure&#45;goes&#45;fast/clj&#45;memory&#45;meter -->
<g id="node4" class="node">
<title>com.clojure&#45;goes&#45;fast/clj&#45;memory&#45;meter</title>
<g id="a_node4"><a xlink:href="./com.clojure-goes-fast__clj-memory-meter.svg" xlink:title="com.clojure&#45;goes&#45;fast/clj&#45;memory&#45;meter">
<path fill="green" stroke="black" d="M1335.15,-1485.7C1335.15,-1487.84 1273.93,-1489.57 1198.58,-1489.57 1123.22,-1489.57 1062,-1487.84 1062,-1485.7 1062,-1485.7 1062,-1450.94 1062,-1450.94 1062,-1448.81 1123.22,-1447.08 1198.58,-1447.08 1273.93,-1447.08 1335.15,-1448.81 1335.15,-1450.94 1335.15,-1450.94 1335.15,-1485.7 1335.15,-1485.7"/>
<path fill="none" stroke="black" d="M1335.15,-1485.7C1335.15,-1483.57 1273.93,-1481.84 1198.58,-1481.84 1123.22,-1481.84 1062,-1483.57 1062,-1485.7"/>
<text text-anchor="middle" x="1198.58" y="-1463.27" font-family="Times,serif" font-size="14.00">com.clojure&#45;goes&#45;fast/clj&#45;memory&#45;meter</text>
</a>
</g>
</g>
<!-- com.datomic/peer -->
<g id="node5" class="node">
<title>com.datomic/peer</title>
<g id="a_node5"><a xlink:href="./com.datomic__peer.svg" xlink:title="com.datomic/peer">
<path fill="green" stroke="black" d="M1410.86,-1078.94C1410.86,-1081.07 1377.38,-1082.81 1336.16,-1082.81 1294.95,-1082.81 1261.46,-1081.07 1261.46,-1078.94 1261.46,-1078.94 1261.46,-1044.18 1261.46,-1044.18 1261.46,-1042.05 1294.95,-1040.32 1336.16,-1040.32 1377.38,-1040.32 1410.86,-1042.05 1410.86,-1044.18 1410.86,-1044.18 1410.86,-1078.94 1410.86,-1078.94"/>
<path fill="none" stroke="black" d="M1410.86,-1078.94C1410.86,-1076.81 1377.38,-1075.08 1336.16,-1075.08 1294.95,-1075.08 1261.46,-1076.81 1261.46,-1078.94"/>
<text text-anchor="middle" x="1336.16" y="-1056.51" font-family="Times,serif" font-size="14.00">com.datomic/peer</text>
</a>
</g>
</g>
<!-- io.sentry/sentry&#45;clj -->
<g id="node6" class="node">
<title>io.sentry/sentry&#45;clj</title>
<g id="a_node6"><a xlink:href="./io.sentry__sentry-clj.svg" xlink:title="io.sentry/sentry&#45;clj">
<path fill="green" stroke="black" d="M1273.4,-542.85C1273.4,-544.99 1239.25,-546.72 1197.2,-546.72 1155.15,-546.72 1121,-544.99 1121,-542.85 1121,-542.85 1121,-508.09 1121,-508.09 1121,-505.96 1155.15,-504.23 1197.2,-504.23 1239.25,-504.23 1273.4,-505.96 1273.4,-508.09 1273.4,-508.09 1273.4,-542.85 1273.4,-542.85"/>
<path fill="none" stroke="black" d="M1273.4,-542.85C1273.4,-540.72 1239.25,-538.99 1197.2,-538.99 1155.15,-538.99 1121,-540.72 1121,-542.85"/>
<text text-anchor="middle" x="1197.2" y="-520.42" font-family="Times,serif" font-size="14.00">io.sentry/sentry&#45;clj</text>
</a>
</g>
</g>
<!-- com.taoensso/tempura -->
<g id="node7" class="node">
<title>com.taoensso/tempura</title>
<g id="a_node7"><a xlink:href="./com.taoensso__tempura.svg" xlink:title="com.taoensso/tempura">
<path fill="green" stroke="black" d="M999.4,-1371.19C999.4,-1373.32 960.54,-1375.05 912.7,-1375.05 864.86,-1375.05 826,-1373.32 826,-1371.19 826,-1371.19 826,-1336.42 826,-1336.42 826,-1334.29 864.86,-1332.56 912.7,-1332.56 960.54,-1332.56 999.4,-1334.29 999.4,-1336.42 999.4,-1336.42 999.4,-1371.19 999.4,-1371.19"/>
<path fill="none" stroke="black" d="M999.4,-1371.19C999.4,-1369.06 960.54,-1367.32 912.7,-1367.32 864.86,-1367.32 826,-1369.06 826,-1371.19"/>
<text text-anchor="middle" x="912.7" y="-1348.76" font-family="Times,serif" font-size="14.00">com.taoensso/tempura</text>
</a>
</g>
</g>
<!-- zprint/zprint -->
<g id="node8" class="node">
<title>zprint/zprint</title>
<g id="a_node8"><a xlink:href="./zprint.svg" xlink:title="zprint/zprint">
<path fill="green" stroke="black" d="M1509.84,-754.53C1509.84,-756.66 1483.58,-758.39 1451.26,-758.39 1418.94,-758.39 1392.69,-756.66 1392.69,-754.53 1392.69,-754.53 1392.69,-719.77 1392.69,-719.77 1392.69,-717.64 1418.94,-715.91 1451.26,-715.91 1483.58,-715.91 1509.84,-717.64 1509.84,-719.77 1509.84,-719.77 1509.84,-754.53 1509.84,-754.53"/>
<path fill="none" stroke="black" d="M1509.84,-754.53C1509.84,-752.4 1483.58,-750.67 1451.26,-750.67 1418.94,-750.67 1392.69,-752.4 1392.69,-754.53"/>
<text text-anchor="middle" x="1451.26" y="-732.1" font-family="Times,serif" font-size="14.00">zprint/zprint</text>
</a>
</g>
</g>
<!-- metosin/malli -->
<g id="node9" class="node">
<title>metosin/malli</title>
<g id="a_node9"><a xlink:href="./metosin__malli.svg" xlink:title="metosin/malli">
<path fill="green" stroke="black" d="M1247.15,-360.91C1247.15,-363.04 1218.88,-364.77 1184.08,-364.77 1149.27,-364.77 1121,-363.04 1121,-360.91 1121,-360.91 1121,-326.15 1121,-326.15 1121,-324.02 1149.27,-322.29 1184.08,-322.29 1218.88,-322.29 1247.15,-324.02 1247.15,-326.15 1247.15,-326.15 1247.15,-360.91 1247.15,-360.91"/>
<path fill="none" stroke="black" d="M1247.15,-360.91C1247.15,-358.78 1218.88,-357.05 1184.08,-357.05 1149.27,-357.05 1121,-358.78 1121,-360.91"/>
<text text-anchor="middle" x="1184.08" y="-338.48" font-family="Times,serif" font-size="14.00">metosin/malli</text>
</a>
</g>
</g>
<!-- babashka/process -->
<g id="node10" class="node">
<title>babashka/process</title>
<g id="a_node10"><a xlink:href="./babashka__process.svg" xlink:title="babashka/process">
<path fill="green" stroke="black" d="M216.43,-38.62C216.43,-40.76 183.96,-42.49 143.98,-42.49 104,-42.49 71.53,-40.76 71.53,-38.62 71.53,-38.62 71.53,-3.86 71.53,-3.86 71.53,-1.73 104,0 143.98,0 183.96,0 216.43,-1.73 216.43,-3.86 216.43,-3.86 216.43,-38.62 216.43,-38.62"/>
<path fill="none" stroke="black" d="M216.43,-38.62C216.43,-36.49 183.96,-34.76 143.98,-34.76 104,-34.76 71.53,-36.49 71.53,-38.62"/>
<text text-anchor="middle" x="143.98" y="-16.19" font-family="Times,serif" font-size="14.00">babashka/process</text>
</a>
</g>
</g>
<!-- nrepl/nrepl -->
<g id="node11" class="node">
<title>nrepl/nrepl</title>
<g id="a_node11"><a xlink:href="./nrepl.svg" xlink:title="nrepl/nrepl">
<path fill="green" stroke="black" d="M1727.1,-1490.03C1727.1,-1492.16 1702.52,-1493.89 1672.27,-1493.89 1642.02,-1493.89 1617.45,-1492.16 1617.45,-1490.03 1617.45,-1490.03 1617.45,-1455.26 1617.45,-1455.26 1617.45,-1453.13 1642.02,-1451.4 1672.27,-1451.4 1702.52,-1451.4 1727.1,-1453.13 1727.1,-1455.26 1727.1,-1455.26 1727.1,-1490.03 1727.1,-1490.03"/>
<path fill="none" stroke="black" d="M1727.1,-1490.03C1727.1,-1487.9 1702.52,-1486.16 1672.27,-1486.16 1642.02,-1486.16 1617.45,-1487.9 1617.45,-1490.03"/>
<text text-anchor="middle" x="1672.27" y="-1467.6" font-family="Times,serif" font-size="14.00">nrepl/nrepl</text>
</a>
</g>
</g>
<!-- mount/mount -->
<g id="node12" class="node">
<title>mount/mount</title>
<g id="a_node12"><a xlink:href="./mount.svg" xlink:title="mount/mount">
<path fill="green" stroke="black" d="M911.51,-1566.51C911.51,-1568.64 883.57,-1570.37 849.18,-1570.37 814.79,-1570.37 786.86,-1568.64 786.86,-1566.51 786.86,-1566.51 786.86,-1531.74 786.86,-1531.74 786.86,-1529.61 814.79,-1527.88 849.18,-1527.88 883.57,-1527.88 911.51,-1529.61 911.51,-1531.74 911.51,-1531.74 911.51,-1566.51 911.51,-1566.51"/>
<path fill="none" stroke="black" d="M911.51,-1566.51C911.51,-1564.37 883.57,-1562.64 849.18,-1562.64 814.79,-1562.64 786.86,-1564.37 786.86,-1566.51"/>
<text text-anchor="middle" x="849.18" y="-1544.07" font-family="Times,serif" font-size="14.00">mount/mount</text>
</a>
</g>
</g>
<!-- lambdaisland/uri -->
<g id="node13" class="node">
<title>lambdaisland/uri</title>
<g id="a_node13"><a xlink:href="./lambdaisland__uri.svg" xlink:title="lambdaisland/uri">
<path fill="green" stroke="black" d="M259.9,-1298.44C259.9,-1300.57 228.1,-1302.3 188.95,-1302.3 149.8,-1302.3 118,-1300.57 118,-1298.44 118,-1298.44 118,-1263.68 118,-1263.68 118,-1261.55 149.8,-1259.81 188.95,-1259.81 228.1,-1259.81 259.9,-1261.55 259.9,-1263.68 259.9,-1263.68 259.9,-1298.44 259.9,-1298.44"/>
<path fill="none" stroke="black" d="M259.9,-1298.44C259.9,-1296.31 228.1,-1294.58 188.95,-1294.58 149.8,-1294.58 118,-1296.31 118,-1298.44"/>
<text text-anchor="middle" x="188.95" y="-1276.01" font-family="Times,serif" font-size="14.00">lambdaisland/uri</text>
</a>
</g>
</g>
<!-- babashka/fs -->
<g id="node14" class="node">
<title>babashka/fs</title>
<g id="a_node14"><a xlink:href="./babashka__fs.svg" xlink:title="babashka/fs">
<path fill="green" stroke="black" d="M649.69,-1611.59C649.69,-1613.72 624.11,-1615.45 592.62,-1615.45 561.12,-1615.45 535.54,-1613.72 535.54,-1611.59 535.54,-1611.59 535.54,-1576.82 535.54,-1576.82 535.54,-1574.69 561.12,-1572.96 592.62,-1572.96 624.11,-1572.96 649.69,-1574.69 649.69,-1576.82 649.69,-1576.82 649.69,-1611.59 649.69,-1611.59"/>
<path fill="none" stroke="black" d="M649.69,-1611.59C649.69,-1609.45 624.11,-1607.72 592.62,-1607.72 561.12,-1607.72 535.54,-1609.45 535.54,-1611.59"/>
<text text-anchor="middle" x="592.62" y="-1589.15" font-family="Times,serif" font-size="14.00">babashka/fs</text>
</a>
</g>
</g>
<!-- http&#45;kit/http&#45;kit -->
<g id="node15" class="node">
<title>http&#45;kit/http&#45;kit</title>
<g id="a_node15"><a xlink:href="./http-kit.svg" xlink:title="http&#45;kit/http&#45;kit">
<path fill="green" stroke="black" d="M900.65,-240.79C900.65,-242.93 870.7,-244.66 833.83,-244.66 796.95,-244.66 767,-242.93 767,-240.79 767,-240.79 767,-206.03 767,-206.03 767,-203.9 796.95,-202.17 833.83,-202.17 870.7,-202.17 900.65,-203.9 900.65,-206.03 900.65,-206.03 900.65,-240.79 900.65,-240.79"/>
<path fill="none" stroke="black" d="M900.65,-240.79C900.65,-238.66 870.7,-236.93 833.83,-236.93 796.95,-236.93 767,-238.66 767,-240.79"/>
<text text-anchor="middle" x="833.83" y="-218.36" font-family="Times,serif" font-size="14.00">http&#45;kit/http&#45;kit</text>
</a>
</g>
</g>
<!-- automaton&#45;core.adapters.files -->
<g id="node16" class="node">
<title>automaton&#45;core.adapters.files</title>
<g id="a_node16"><a xlink:href="./automaton-core.adapters.files.svg" xlink:title="automaton&#45;core.adapters.files">
<ellipse fill="none" stroke="black" cx="638.97" cy="-1206.69" rx="120.96" ry="18"/>
<text text-anchor="middle" x="638.97" y="-1201.64" font-family="Times,serif" font-size="14.00">automaton&#45;core.adapters.files</text>
</a>
</g>
</g>
<!-- automaton&#45;core.adapters.files&#45;&gt;org.clojure/clojure -->
<g id="edge15" class="edge">
<title>automaton&#45;core.adapters.files&#45;&gt;org.clojure/clojure</title>
<path fill="none" stroke="black" d="M637.22,-1188.2C630.57,-1117.81 606.78,-865.99 598.2,-775.21"/>
<polygon fill="black" stroke="black" points="601.71,-775.13 597.28,-765.5 594.74,-775.78 601.71,-775.13"/>
</g>
<!-- automaton&#45;core.adapters.files&#45;&gt;babashka/fs -->
<g id="edge14" class="edge">
<title>automaton&#45;core.adapters.files&#45;&gt;babashka/fs</title>
<path fill="none" stroke="black" d="M636.76,-1225.12C629.44,-1286.35 605.85,-1483.55 596.49,-1561.79"/>
<polygon fill="black" stroke="black" points="593.06,-1561.01 595.35,-1571.36 600.01,-1561.84 593.06,-1561.01"/>
</g>
<!-- automaton&#45;core.http.request -->
<g id="node17" class="node">
<title>automaton&#45;core.http.request</title>
<g id="a_node17"><a xlink:href="./automaton-core.http.request.svg" xlink:title="automaton&#45;core.http.request">
<ellipse fill="none" stroke="black" cx="1024" cy="-195" rx="115.33" ry="18"/>
<text text-anchor="middle" x="1024" y="-189.95" font-family="Times,serif" font-size="14.00">automaton&#45;core.http.request</text>
</a>
</g>
</g>
<!-- automaton&#45;core.http.request&#45;&gt;http&#45;kit/http&#45;kit -->
<g id="edge16" class="edge">
<title>automaton&#45;core.http.request&#45;&gt;http&#45;kit/http&#45;kit</title>
<path fill="none" stroke="black" d="M939.48,-207.63C930.41,-208.98 921.21,-210.36 912.22,-211.7"/>
<polygon fill="black" stroke="black" points="911.84,-208.22 902.46,-213.16 912.87,-215.14 911.84,-208.22"/>
</g>
<!-- automaton&#45;core.log.impl.log4j2 -->
<g id="node18" class="node">
<title>automaton&#45;core.log.impl.log4j2</title>
<g id="a_node18"><a xlink:href="./automaton-core.log.impl.log4j2.svg" xlink:title="automaton&#45;core.log.impl.log4j2">
<ellipse fill="none" stroke="black" cx="1561.33" cy="-608" rx="129.66" ry="18"/>
<text text-anchor="middle" x="1561.33" y="-602.95" font-family="Times,serif" font-size="14.00">automaton&#45;core.log.impl.log4j2</text>
</a>
</g>
</g>
<!-- automaton&#45;core.log.impl.log4j2&#45;&gt;org.clojure/tools.logging -->
<g id="edge17" class="edge">
<title>automaton&#45;core.log.impl.log4j2&#45;&gt;org.clojure/tools.logging</title>
<path fill="none" stroke="black" d="M1471.75,-621.38C1459.77,-623.17 1447.41,-625.02 1435.21,-626.84"/>
<polygon fill="black" stroke="black" points="1434.95,-623.34 1425.58,-628.28 1435.98,-630.27 1434.95,-623.34"/>
</g>
<!-- automaton&#45;core.storage.impl.datomic.utils -->
<g id="node19" class="node">
<title>automaton&#45;core.storage.impl.datomic.utils</title>
<g id="a_node19"><a xlink:href="./automaton-core.storage.impl.datomic.utils.svg" xlink:title="automaton&#45;core.storage.impl.datomic.utils">
<ellipse fill="none" stroke="black" cx="1169.88" cy="-844" rx="169.58" ry="18"/>
<text text-anchor="middle" x="1169.88" y="-838.95" font-family="Times,serif" font-size="14.00">automaton&#45;core.storage.impl.datomic.utils</text>
</a>
</g>
</g>
<!-- automaton&#45;core.storage.impl.datomic.utils&#45;&gt;com.datomic/peer -->
<g id="edge6" class="edge">
<title>automaton&#45;core.storage.impl.datomic.utils&#45;&gt;com.datomic/peer</title>
<path fill="none" stroke="black" d="M1183.77,-862.17C1212.32,-899.53 1277.87,-985.28 1312.97,-1031.21"/>
<polygon fill="black" stroke="black" points="1309.99,-1033.09 1318.85,-1038.91 1315.56,-1028.83 1309.99,-1033.09"/>
</g>
<!-- automaton&#45;core.log.tracking.be&#45;sentry -->
<g id="node20" class="node">
<title>automaton&#45;core.log.tracking.be&#45;sentry</title>
<g id="a_node20"><a xlink:href="./automaton-core.log.tracking.be-sentry.svg" xlink:title="automaton&#45;core.log.tracking.be&#45;sentry">
<ellipse fill="none" stroke="black" cx="1434.62" cy="-490" rx="153.2" ry="18"/>
<text text-anchor="middle" x="1434.62" y="-484.95" font-family="Times,serif" font-size="14.00">automaton&#45;core.log.tracking.be&#45;sentry</text>
</a>
</g>
</g>
<!-- automaton&#45;core.log.tracking.be&#45;sentry&#45;&gt;io.sentry/sentry&#45;clj -->
<g id="edge18" class="edge">
<title>automaton&#45;core.log.tracking.be&#45;sentry&#45;&gt;io.sentry/sentry&#45;clj</title>
<path fill="none" stroke="black" d="M1338.4,-504.38C1320.79,-507.01 1302.49,-509.74 1285.14,-512.33"/>
<polygon fill="black" stroke="black" points="1284.76,-508.85 1275.39,-513.79 1285.8,-515.77 1284.76,-508.85"/>
</g>
<!-- automaton&#45;core.data&#45;structure.graph.graph&#45;impl -->
<g id="node21" class="node">
<title>automaton&#45;core.data&#45;structure.graph.graph&#45;impl</title>
<g id="a_node21"><a xlink:href="./automaton-core.data-structure.graph.graph-impl.svg" xlink:title="automaton&#45;core.data&#45;structure.graph.graph&#45;impl">
<ellipse fill="none" stroke="black" cx="354.68" cy="-932.8" rx="190.05" ry="18"/>
<text text-anchor="middle" x="354.68" y="-927.75" font-family="Times,serif" font-size="14.00">automaton&#45;core.data&#45;structure.graph.graph&#45;impl</text>
</a>
</g>
</g>
<!-- automaton&#45;core.data&#45;structure.graph.graph&#45;impl&#45;&gt;org.clojure/clojure -->
<g id="edge23" class="edge">
<title>automaton&#45;core.data&#45;structure.graph.graph&#45;impl&#45;&gt;org.clojure/clojure</title>
<path fill="none" stroke="black" d="M377.73,-914.53C419.66,-881.31 508.71,-810.75 558.84,-771.02"/>
<polygon fill="black" stroke="black" points="560.88,-773.87 566.54,-764.92 556.53,-768.39 560.88,-773.87"/>
</g>
<!-- automaton&#45;core.storage.component -->
<g id="node22" class="node">
<title>automaton&#45;core.storage.component</title>
<g id="a_node22"><a xlink:href="./automaton-core.storage.component.svg" xlink:title="automaton&#45;core.storage.component">
<ellipse fill="none" stroke="black" cx="885.3" cy="-1596.37" rx="142.45" ry="18"/>
<text text-anchor="middle" x="885.3" y="-1591.32" font-family="Times,serif" font-size="14.00">automaton&#45;core.storage.component</text>
</a>
</g>
</g>
<!-- automaton&#45;core.storage.component&#45;&gt;mount/mount -->
<g id="edge8" class="edge">
<title>automaton&#45;core.storage.component&#45;&gt;mount/mount</title>
<path fill="none" stroke="black" d="M871.23,-1577.97C871.12,-1577.82 871.01,-1577.67 870.89,-1577.52"/>
<polygon fill="black" stroke="black" points="875.45,-1577.72 866.59,-1571.9 869.89,-1581.97 875.45,-1577.72"/>
</g>
<!-- automaton&#45;core.adapters.commands -->
<g id="node23" class="node">
<title>automaton&#45;core.adapters.commands</title>
<g id="a_node23"><a xlink:href="./automaton-core.adapters.commands.svg" xlink:title="automaton&#45;core.adapters.commands">
<ellipse fill="none" stroke="black" cx="328.26" cy="-359.6" rx="146.04" ry="18"/>
<text text-anchor="middle" x="328.26" y="-354.55" font-family="Times,serif" font-size="14.00">automaton&#45;core.adapters.commands</text>
</a>
</g>
</g>
<!-- automaton&#45;core.adapters.commands&#45;&gt;org.clojure/clojure -->
<g id="edge10" class="edge">
<title>automaton&#45;core.adapters.commands&#45;&gt;org.clojure/clojure</title>
<path fill="none" stroke="black" d="M340.95,-377.8C383.36,-438.63 520.5,-635.31 573.71,-711.63"/>
<polygon fill="black" stroke="black" points="570.61,-713.3 579.2,-719.5 576.35,-709.29 570.61,-713.3"/>
</g>
<!-- automaton&#45;core.adapters.commands&#45;&gt;babashka/process -->
<g id="edge9" class="edge">
<title>automaton&#45;core.adapters.commands&#45;&gt;babashka/process</title>
<path fill="none" stroke="black" d="M318.36,-341.41C288.49,-286.57 199.07,-122.39 161.21,-52.88"/>
<polygon fill="black" stroke="black" points="164.39,-51.39 156.53,-44.29 158.24,-54.74 164.39,-51.39"/>
</g>
<!-- automaton&#45;core.os.code&#45;formatter -->
<g id="node24" class="node">
<title>automaton&#45;core.os.code&#45;formatter</title>
<g id="a_node24"><a xlink:href="./automaton-core.os.code-formatter.svg" xlink:title="automaton&#45;core.os.code&#45;formatter">
<ellipse fill="none" stroke="black" cx="1065.82" cy="-733.57" rx="137.85" ry="18"/>
<text text-anchor="middle" x="1065.82" y="-728.52" font-family="Times,serif" font-size="14.00">automaton&#45;core.os.code&#45;formatter</text>
</a>
</g>
</g>
<!-- automaton&#45;core.os.code&#45;formatter&#45;&gt;org.clojure/clojure -->
<g id="edge20" class="edge">
<title>automaton&#45;core.os.code&#45;formatter&#45;&gt;org.clojure/clojure</title>
<path fill="none" stroke="black" d="M929.04,-736.1C849.32,-737.58 751.2,-739.4 682,-740.68"/>
<polygon fill="black" stroke="black" points="682.17,-737.18 672.23,-740.87 682.3,-744.18 682.17,-737.18"/>
</g>
<!-- automaton&#45;core.os.code&#45;formatter&#45;&gt;zprint/zprint -->
<g id="edge19" class="edge">
<title>automaton&#45;core.os.code&#45;formatter&#45;&gt;zprint/zprint</title>
<path fill="none" stroke="black" d="M1203.62,-734.85C1263.76,-735.41 1331.7,-736.04 1381.18,-736.5"/>
<polygon fill="black" stroke="black" points="1380.85,-740 1390.88,-736.59 1380.91,-733 1380.85,-740"/>
</g>
<!-- automaton&#45;core.configuration.simple&#45;files -->
<g id="node25" class="node">
<title>automaton&#45;core.configuration.simple&#45;files</title>
<g id="a_node25"><a xlink:href="./automaton-core.configuration.simple-files.svg" xlink:title="automaton&#45;core.configuration.simple&#45;files">
<ellipse fill="none" stroke="black" cx="255.22" cy="-582.12" rx="168.04" ry="18"/>
<text text-anchor="middle" x="255.22" y="-577.07" font-family="Times,serif" font-size="14.00">automaton&#45;core.configuration.simple&#45;files</text>
</a>
</g>
</g>
<!-- automaton&#45;core.configuration.simple&#45;files&#45;&gt;org.clojure/clojure -->
<g id="edge22" class="edge">
<title>automaton&#45;core.configuration.simple&#45;files&#45;&gt;org.clojure/clojure</title>
<path fill="none" stroke="black" d="M293.22,-600.03C353.11,-628.25 469.77,-683.24 539.22,-715.97"/>
<polygon fill="black" stroke="black" points="537.62,-719.08 548.16,-720.18 540.61,-712.75 537.62,-719.08"/>
</g>
<!-- automaton&#45;core.utils.namespace -->
<g id="node26" class="node">
<title>automaton&#45;core.utils.namespace</title>
<g id="a_node26"><a xlink:href="./automaton-core.utils.namespace.svg" xlink:title="automaton&#45;core.utils.namespace">
<ellipse fill="none" stroke="black" cx="703.83" cy="-329.35" rx="131.19" ry="18"/>
<text text-anchor="middle" x="703.83" y="-324.3" font-family="Times,serif" font-size="14.00">automaton&#45;core.utils.namespace</text>
</a>
</g>
</g>
<!-- automaton&#45;core.utils.namespace&#45;&gt;org.clojure/clojure -->
<g id="edge3" class="edge">
<title>automaton&#45;core.utils.namespace&#45;&gt;org.clojure/clojure</title>
<path fill="none" stroke="black" d="M699.02,-347.63C682.14,-411.74 625.46,-626.98 603.7,-709.61"/>
<polygon fill="black" stroke="black" points="600.36,-708.56 601.19,-719.12 607.13,-710.34 600.36,-708.56"/>
</g>
<!-- automaton&#45;core.utils.pretty&#45;print -->
<g id="node27" class="node">
<title>automaton&#45;core.utils.pretty&#45;print</title>
<g id="a_node27"><a xlink:href="./automaton-core.utils.pretty-print.svg" xlink:title="automaton&#45;core.utils.pretty&#45;print">
<ellipse fill="none" stroke="black" cx="532.74" cy="-414.09" rx="132.22" ry="18"/>
<text text-anchor="middle" x="532.74" y="-409.04" font-family="Times,serif" font-size="14.00">automaton&#45;core.utils.pretty&#45;print</text>
</a>
</g>
</g>
<!-- automaton&#45;core.utils.pretty&#45;print&#45;&gt;org.clojure/clojure -->
<g id="edge4" class="edge">
<title>automaton&#45;core.utils.pretty&#45;print&#45;&gt;org.clojure/clojure</title>
<path fill="none" stroke="black" d="M536.18,-432.2C546.29,-485.43 576.01,-641.88 588.96,-710"/>
<polygon fill="black" stroke="black" points="585.44,-710.24 590.74,-719.41 592.32,-708.93 585.44,-710.24"/>
</g>
<!-- automaton&#45;core.adapters.java&#45;properties -->
<g id="node28" class="node">
<title>automaton&#45;core.adapters.java&#45;properties</title>
<g id="a_node28"><a xlink:href="./automaton-core.adapters.java-properties.svg" xlink:title="automaton&#45;core.adapters.java&#45;properties">
<ellipse fill="none" stroke="black" cx="160.37" cy="-741.94" rx="160.37" ry="18"/>
<text text-anchor="middle" x="160.37" y="-736.89" font-family="Times,serif" font-size="14.00">automaton&#45;core.adapters.java&#45;properties</text>
</a>
</g>
</g>
<!-- automaton&#45;core.adapters.java&#45;properties&#45;&gt;org.clojure/clojure -->
<g id="edge13" class="edge">
<title>automaton&#45;core.adapters.java&#45;properties&#45;&gt;org.clojure/clojure</title>
<path fill="none" stroke="black" d="M321.01,-742.07C384.21,-742.12 454.3,-742.18 507.78,-742.22"/>
<polygon fill="black" stroke="black" points="507.76,-745.72 517.76,-742.23 507.76,-738.72 507.76,-745.72"/>
</g>
<!-- automaton&#45;core.utils.string&#45;to&#45;id -->
<g id="node29" class="node">
<title>automaton&#45;core.utils.string&#45;to&#45;id</title>
<g id="a_node29"><a xlink:href="./automaton-core.utils.string-to-id.svg" xlink:title="automaton&#45;core.utils.string&#45;to&#45;id">
<ellipse fill="none" stroke="black" cx="922.27" cy="-914.06" rx="131.71" ry="18"/>
<text text-anchor="middle" x="922.27" y="-909.01" font-family="Times,serif" font-size="14.00">automaton&#45;core.utils.string&#45;to&#45;id</text>
</a>
</g>
</g>
<!-- automaton&#45;core.utils.string&#45;to&#45;id&#45;&gt;org.clojure/clojure -->
<g id="edge27" class="edge">
<title>automaton&#45;core.utils.string&#45;to&#45;id&#45;&gt;org.clojure/clojure</title>
<path fill="none" stroke="black" d="M888.49,-896.32C831.03,-866.16 713.94,-804.69 646.34,-769.2"/>
<polygon fill="black" stroke="black" points="648.16,-766.2 637.68,-764.65 644.91,-772.4 648.16,-766.2"/>
</g>
<!-- automaton&#45;core.repl -->
<g id="node30" class="node">
<title>automaton&#45;core.repl</title>
<g id="a_node30"><a xlink:href="./automaton-core.repl.svg" xlink:title="automaton&#45;core.repl">
<ellipse fill="none" stroke="black" cx="1502.49" cy="-1279.69" rx="86.15" ry="18"/>
<text text-anchor="middle" x="1502.49" y="-1274.64" font-family="Times,serif" font-size="14.00">automaton&#45;core.repl</text>
</a>
</g>
</g>
<!-- automaton&#45;core.repl&#45;&gt;com.datomic/peer -->
<g id="edge1" class="edge">
<title>automaton&#45;core.repl&#45;&gt;com.datomic/peer</title>
<path fill="none" stroke="black" d="M1488.6,-1261.46C1460.04,-1224.01 1394.48,-1138.04 1359.37,-1091.99"/>
<polygon fill="black" stroke="black" points="1362.33,-1090.1 1353.48,-1084.27 1356.76,-1094.35 1362.33,-1090.1"/>
</g>
<!-- automaton&#45;core.repl&#45;&gt;nrepl/nrepl -->
<g id="edge2" class="edge">
<title>automaton&#45;core.repl&#45;&gt;nrepl/nrepl</title>
<path fill="none" stroke="black" d="M1518.46,-1297.84C1547.76,-1331.14 1610.36,-1402.28 1646.01,-1442.8"/>
<polygon fill="black" stroke="black" points="1643.16,-1444.86 1652.39,-1450.05 1648.41,-1440.24 1643.16,-1444.86"/>
</g>
<!-- automaton&#45;core.dev -->
<g id="node31" class="node">
<title>automaton&#45;core.dev</title>
<g id="a_node31"><a xlink:href="./automaton-core.dev.svg" xlink:title="automaton&#45;core.dev">
<ellipse fill="none" stroke="black" cx="1428.3" cy="-1434" rx="85.13" ry="18"/>
<text text-anchor="middle" x="1428.3" y="-1428.95" font-family="Times,serif" font-size="14.00">automaton&#45;core.dev</text>
</a>
</g>
</g>
<!-- automaton&#45;core.dev&#45;&gt;com.clojure&#45;goes&#45;fast/clj&#45;memory&#45;meter -->
<g id="edge21" class="edge">
<title>automaton&#45;core.dev&#45;&gt;com.clojure&#45;goes&#45;fast/clj&#45;memory&#45;meter</title>
<path fill="none" stroke="black" d="M1358.13,-1444.48C1354.32,-1445.05 1350.43,-1445.63 1346.49,-1446.22"/>
<polygon fill="black" stroke="black" points="1346.11,-1442.74 1336.73,-1447.68 1347.14,-1449.66 1346.11,-1442.74"/>
</g>
<!-- automaton&#45;core.utils.map -->
<g id="node32" class="node">
<title>automaton&#45;core.utils.map</title>
<g id="a_node32"><a xlink:href="./automaton-core.utils.map.svg" xlink:title="automaton&#45;core.utils.map">
<ellipse fill="none" stroke="black" cx="827.18" cy="-1060.36" rx="106.63" ry="18"/>
<text text-anchor="middle" x="827.18" y="-1055.31" font-family="Times,serif" font-size="14.00">automaton&#45;core.utils.map</text>
</a>
</g>
</g>
<!-- automaton&#45;core.utils.map&#45;&gt;org.clojure/clojure -->
<g id="edge25" class="edge">
<title>automaton&#45;core.utils.map&#45;&gt;org.clojure/clojure</title>
<path fill="none" stroke="black" d="M814.04,-1042.35C775.93,-990.12 665.05,-838.17 617.34,-772.79"/>
<polygon fill="black" stroke="black" points="620.39,-771.03 611.67,-765.02 614.74,-775.16 620.39,-771.03"/>
</g>
<!-- automaton&#45;core.configuration -->
<g id="node33" class="node">
<title>automaton&#45;core.configuration</title>
<g id="a_node33"><a xlink:href="./automaton-core.configuration.svg" xlink:title="automaton&#45;core.configuration">
<ellipse fill="none" stroke="black" cx="829.47" cy="-1493" rx="121.47" ry="18"/>
<text text-anchor="middle" x="829.47" y="-1487.95" font-family="Times,serif" font-size="14.00">automaton&#45;core.configuration</text>
</a>
</g>
</g>
<!-- automaton&#45;core.configuration&#45;&gt;mount/mount -->
<g id="edge29" class="edge">
<title>automaton&#45;core.configuration&#45;&gt;mount/mount</title>
<path fill="none" stroke="black" d="M835.92,-1511.38C836.51,-1513.06 837.12,-1514.79 837.74,-1516.54"/>
<polygon fill="black" stroke="black" points="834.43,-1517.68 841.05,-1525.96 841.03,-1515.36 834.43,-1517.68"/>
</g>
<!-- automaton&#45;core.adapters.edn&#45;utils -->
<g id="node34" class="node">
<title>automaton&#45;core.adapters.edn&#45;utils</title>
<g id="a_node34"><a xlink:href="./automaton-core.adapters.edn-utils.svg" xlink:title="automaton&#45;core.adapters.edn&#45;utils">
<ellipse fill="none" stroke="black" cx="469.71" cy="-1096.3" rx="137.34" ry="18"/>
<text text-anchor="middle" x="469.71" y="-1091.25" font-family="Times,serif" font-size="14.00">automaton&#45;core.adapters.edn&#45;utils</text>
</a>
</g>
</g>
<!-- automaton&#45;core.adapters.edn&#45;utils&#45;&gt;org.clojure/clojure -->
<g id="edge12" class="edge">
<title>automaton&#45;core.adapters.edn&#45;utils&#45;&gt;org.clojure/clojure</title>
<path fill="none" stroke="black" d="M476.1,-1078.26C496.14,-1021.69 557.93,-847.23 583.66,-774.57"/>
<polygon fill="black" stroke="black" points="586.92,-775.84 586.96,-765.25 580.33,-773.5 586.92,-775.84"/>
</g>
<!-- automaton&#45;core.storage.impl.datomic.datomic -->
<g id="node35" class="node">
<title>automaton&#45;core.storage.impl.datomic.datomic</title>
<g id="a_node35"><a xlink:href="./automaton-core.storage.impl.datomic.datomic.svg" xlink:title="automaton&#45;core.storage.impl.datomic.datomic">
<ellipse fill="none" stroke="black" cx="1531.41" cy="-861.11" rx="183.91" ry="18"/>
<text text-anchor="middle" x="1531.41" y="-856.06" font-family="Times,serif" font-size="14.00">automaton&#45;core.storage.impl.datomic.datomic</text>
</a>
</g>
</g>
<!-- automaton&#45;core.storage.impl.datomic.datomic&#45;&gt;com.datomic/peer -->
<g id="edge7" class="edge">
<title>automaton&#45;core.storage.impl.datomic.datomic&#45;&gt;com.datomic/peer</title>
<path fill="none" stroke="black" d="M1513.73,-879.25C1480.01,-913.88 1406.19,-989.67 1365.14,-1031.81"/>
<polygon fill="black" stroke="black" points="1362.68,-1029.32 1358.21,-1038.93 1367.69,-1034.21 1362.68,-1029.32"/>
</g>
<!-- automaton&#45;core.user.account.schema -->
<g id="node36" class="node">
<title>automaton&#45;core.user.account.schema</title>
<g id="a_node36"><a xlink:href="./automaton-core.user.account.schema.svg" xlink:title="automaton&#45;core.user.account.schema">
<ellipse fill="none" stroke="black" cx="1092.59" cy="-1199.4" rx="148.59" ry="18"/>
<text text-anchor="middle" x="1092.59" y="-1194.35" font-family="Times,serif" font-size="14.00">automaton&#45;core.user.account.schema</text>
</a>
</g>
</g>
<!-- automaton&#45;core.user.account.schema&#45;&gt;com.datomic/peer -->
<g id="edge5" class="edge">
<title>automaton&#45;core.user.account.schema&#45;&gt;com.datomic/peer</title>
<path fill="none" stroke="black" d="M1124.44,-1181.38C1166.09,-1157.81 1239.46,-1116.29 1287.95,-1088.85"/>
<polygon fill="black" stroke="black" points="1289.6,-1091.93 1296.58,-1083.96 1286.15,-1085.84 1289.6,-1091.93"/>
</g>
<!-- automaton&#45;core.url -->
<g id="node37" class="node">
<title>automaton&#45;core.url</title>
<g id="a_node37"><a xlink:href="./automaton-core.url.svg" xlink:title="automaton&#45;core.url">
<ellipse fill="none" stroke="black" cx="349.98" cy="-1257" rx="82.06" ry="18"/>
<text text-anchor="middle" x="349.98" y="-1251.95" font-family="Times,serif" font-size="14.00">automaton&#45;core.url</text>
</a>
</g>
</g>
<!-- automaton&#45;core.url&#45;&gt;lambdaisland/uri -->
<g id="edge24" class="edge">
<title>automaton&#45;core.url&#45;&gt;lambdaisland/uri</title>
<path fill="none" stroke="black" d="M281.69,-1267.2C278.24,-1267.72 274.76,-1268.24 271.28,-1268.76"/>
<polygon fill="black" stroke="black" points="271.05,-1265.25 261.68,-1270.19 272.09,-1272.18 271.05,-1265.25"/>
</g>
<!-- automaton&#45;core.utils.keyword -->
<g id="node38" class="node">
<title>automaton&#45;core.utils.keyword</title>
<g id="a_node38"><a xlink:href="./automaton-core.utils.keyword.svg" xlink:title="automaton&#45;core.utils.keyword">
<ellipse fill="none" stroke="black" cx="885.86" cy="-605.81" rx="122.49" ry="18"/>
<text text-anchor="middle" x="885.86" y="-600.76" font-family="Times,serif" font-size="14.00">automaton&#45;core.utils.keyword</text>
</a>
</g>
</g>
<!-- automaton&#45;core.utils.keyword&#45;&gt;org.clojure/clojure -->
<g id="edge28" class="edge">
<title>automaton&#45;core.utils.keyword&#45;&gt;org.clojure/clojure</title>
<path fill="none" stroke="black" d="M848.44,-623.37C798.23,-646.94 708.66,-688.98 650.59,-716.24"/>
<polygon fill="black" stroke="black" points="649.42,-712.93 641.86,-720.34 652.39,-719.26 649.42,-712.93"/>
</g>
<!-- automaton&#45;core.adapters.schema -->
<g id="node39" class="node">
<title>automaton&#45;core.adapters.schema</title>
<g id="a_node39"><a xlink:href="./automaton-core.adapters.schema.svg" xlink:title="automaton&#45;core.adapters.schema">
<ellipse fill="none" stroke="black" cx="1388.41" cy="-313" rx="133.24" ry="18"/>
<text text-anchor="middle" x="1388.41" y="-307.95" font-family="Times,serif" font-size="14.00">automaton&#45;core.adapters.schema</text>
</a>
</g>
</g>
<!-- automaton&#45;core.adapters.schema&#45;&gt;metosin/malli -->
<g id="edge11" class="edge">
<title>automaton&#45;core.adapters.schema&#45;&gt;metosin/malli</title>
<path fill="none" stroke="black" d="M1297.6,-326.57C1284.49,-328.53 1271.13,-330.52 1258.39,-332.43"/>
<polygon fill="black" stroke="black" points="1258.25,-328.91 1248.88,-333.85 1259.29,-335.83 1258.25,-328.91"/>
</g>
<!-- automaton&#45;core.i18n.translator.tempura -->
<g id="node40" class="node">
<title>automaton&#45;core.i18n.translator.tempura</title>
<g id="a_node40"><a xlink:href="./automaton-core.i18n.translator.tempura.svg" xlink:title="automaton&#45;core.i18n.translator.tempura">
<ellipse fill="none" stroke="black" cx="1165.74" cy="-1316" rx="158.32" ry="18"/>
<text text-anchor="middle" x="1165.74" y="-1310.95" font-family="Times,serif" font-size="14.00">automaton&#45;core.i18n.translator.tempura</text>
</a>
</g>
</g>
<!-- automaton&#45;core.i18n.translator.tempura&#45;&gt;com.taoensso/tempura -->
<g id="edge31" class="edge">
<title>automaton&#45;core.i18n.translator.tempura&#45;&gt;com.taoensso/tempura</title>
<path fill="none" stroke="black" d="M1068.27,-1330.56C1049.51,-1333.37 1029.84,-1336.3 1011.05,-1339.11"/>
<polygon fill="black" stroke="black" points="1010.65,-1335.63 1001.28,-1340.57 1011.69,-1342.56 1010.65,-1335.63"/>
</g>
<!-- automaton&#45;core.i18n.language -->
<g id="node41" class="node">
<title>automaton&#45;core.i18n.language</title>
<g id="a_node41"><a xlink:href="./automaton-core.i18n.language.svg" xlink:title="automaton&#45;core.i18n.language">
<ellipse fill="none" stroke="black" cx="885.52" cy="-416.64" rx="124.03" ry="18"/>
<text text-anchor="middle" x="885.52" y="-411.59" font-family="Times,serif" font-size="14.00">automaton&#45;core.i18n.language</text>
</a>
</g>
</g>
<!-- automaton&#45;core.i18n.language&#45;&gt;org.clojure/clojure -->
<g id="edge32" class="edge">
<title>automaton&#45;core.i18n.language&#45;&gt;org.clojure/clojure</title>
<path fill="none" stroke="black" d="M869.49,-434.61C821.92,-487.95 681.17,-645.77 621.89,-712.24"/>
<polygon fill="black" stroke="black" points="619.47,-709.7 615.42,-719.5 624.69,-714.36 619.47,-709.7"/>
</g>
<!-- automaton&#45;core.utils.uuid&#45;gen -->
<g id="node42" class="node">
<title>automaton&#45;core.utils.uuid&#45;gen</title>
<g id="a_node42"><a xlink:href="./automaton-core.utils.uuid-gen.svg" xlink:title="automaton&#45;core.utils.uuid&#45;gen">
<ellipse fill="none" stroke="black" cx="508.92" cy="-1375" rx="123" ry="18"/>
<text text-anchor="middle" x="508.92" y="-1369.95" font-family="Times,serif" font-size="14.00">automaton&#45;core.utils.uuid&#45;gen</text>
</a>
</g>
</g>
<!-- automaton&#45;core.utils.uuid&#45;gen&#45;&gt;danlentz/clj&#45;uuid -->
<g id="edge26" class="edge">
<title>automaton&#45;core.utils.uuid&#45;gen&#45;&gt;danlentz/clj&#45;uuid</title>
<path fill="none" stroke="black" d="M421.51,-1388.06C410.86,-1389.65 400.01,-1391.27 389.44,-1392.85"/>
<polygon fill="black" stroke="black" points="388.97,-1389.38 379.59,-1394.32 390,-1396.31 388.97,-1389.38"/>
</g>
<!-- automaton&#45;core.i18n.missing&#45;translation&#45;report -->
<g id="node43" class="node">
<title>automaton&#45;core.i18n.missing&#45;translation&#45;report</title>
<g id="a_node43"><a xlink:href="./automaton-core.i18n.missing-translation-report.svg" xlink:title="automaton&#45;core.i18n.missing&#45;translation&#45;report">
<ellipse fill="none" stroke="black" cx="196.86" cy="-976.8" rx="186.98" ry="18"/>
<text text-anchor="middle" x="196.86" y="-971.75" font-family="Times,serif" font-size="14.00">automaton&#45;core.i18n.missing&#45;translation&#45;report</text>
</a>
</g>
</g>
<!-- automaton&#45;core.i18n.missing&#45;translation&#45;report&#45;&gt;org.clojure/clojure -->
<g id="edge30" class="edge">
<title>automaton&#45;core.i18n.missing&#45;translation&#45;report&#45;&gt;org.clojure/clojure</title>
<path fill="none" stroke="black" d="M227.78,-958.6C297.25,-917.69 466.05,-818.29 548.38,-769.8"/>
<polygon fill="black" stroke="black" points="550.07,-772.87 556.91,-764.78 546.52,-766.84 550.07,-772.87"/>
</g>
</g>
</svg>
